<mxfile host="Electron" modified="2024-07-22T13:05:16.834Z" agent="Mozilla/5.0 (Windows NT 10.0; Win64; x64) AppleWebKit/537.36 (KHTML, like Gecko) draw.io/24.5.3 Chrome/124.0.6367.207 Electron/30.0.6 Safari/537.36" etag="52FD1Aqnb6duzsEQzASi" version="24.5.3" type="device">
  <diagram name="Page-1" id="AAAJv77GozxBB-8pHiq3">
    <mxGraphModel dx="2524" dy="1944" grid="1" gridSize="10" guides="1" tooltips="1" connect="1" arrows="1" fold="1" page="1" pageScale="1" pageWidth="850" pageHeight="1100" math="0" shadow="0">
      <root>
        <mxCell id="0" />
        <mxCell id="1" parent="0" />
        <mxCell id="uZX2ix62dhJPmN28t-Xk-1" value="User" style="swimlane;fontStyle=1;align=center;verticalAlign=top;childLayout=stackLayout;horizontal=1;startSize=26;horizontalStack=0;resizeParent=1;resizeParentMax=0;resizeLast=0;collapsible=1;marginBottom=0;whiteSpace=wrap;html=1;" parent="1" vertex="1">
          <mxGeometry x="440" y="-30" width="160" height="94" as="geometry" />
        </mxCell>
        <mxCell id="uZX2ix62dhJPmN28t-Xk-3" value="" style="line;strokeWidth=1;fillColor=none;align=left;verticalAlign=middle;spacingTop=-1;spacingLeft=3;spacingRight=3;rotatable=0;labelPosition=right;points=[];portConstraint=eastwest;strokeColor=inherit;" parent="uZX2ix62dhJPmN28t-Xk-1" vertex="1">
          <mxGeometry y="26" width="160" height="8" as="geometry" />
        </mxCell>
        <mxCell id="uZX2ix62dhJPmN28t-Xk-4" value="- user_id: str&amp;nbsp;&lt;br&gt;- name: str&amp;nbsp;&lt;br&gt;&amp;nbsp;- email: str" style="text;strokeColor=none;fillColor=none;align=left;verticalAlign=top;spacingLeft=4;spacingRight=4;overflow=hidden;rotatable=0;points=[[0,0.5],[1,0.5]];portConstraint=eastwest;whiteSpace=wrap;html=1;" parent="uZX2ix62dhJPmN28t-Xk-1" vertex="1">
          <mxGeometry y="34" width="160" height="60" as="geometry" />
        </mxCell>
        <mxCell id="uZX2ix62dhJPmN28t-Xk-5" value="Doctor" style="swimlane;fontStyle=1;align=center;verticalAlign=top;childLayout=stackLayout;horizontal=1;startSize=26;horizontalStack=0;resizeParent=1;resizeParentMax=0;resizeLast=0;collapsible=1;marginBottom=0;whiteSpace=wrap;html=1;" parent="1" vertex="1">
          <mxGeometry x="290" y="150" width="160" height="60" as="geometry" />
        </mxCell>
        <mxCell id="uZX2ix62dhJPmN28t-Xk-7" value="" style="line;strokeWidth=1;fillColor=none;align=left;verticalAlign=middle;spacingTop=-1;spacingLeft=3;spacingRight=3;rotatable=0;labelPosition=right;points=[];portConstraint=eastwest;strokeColor=inherit;" parent="uZX2ix62dhJPmN28t-Xk-5" vertex="1">
          <mxGeometry y="26" width="160" height="8" as="geometry" />
        </mxCell>
        <mxCell id="uZX2ix62dhJPmN28t-Xk-8" value="- courses: list" style="text;strokeColor=none;fillColor=none;align=left;verticalAlign=top;spacingLeft=4;spacingRight=4;overflow=hidden;rotatable=0;points=[[0,0.5],[1,0.5]];portConstraint=eastwest;whiteSpace=wrap;html=1;" parent="uZX2ix62dhJPmN28t-Xk-5" vertex="1">
          <mxGeometry y="34" width="160" height="26" as="geometry" />
        </mxCell>
        <mxCell id="uZX2ix62dhJPmN28t-Xk-9" value="TeachingAssistant" style="swimlane;fontStyle=1;align=center;verticalAlign=top;childLayout=stackLayout;horizontal=1;startSize=26;horizontalStack=0;resizeParent=1;resizeParentMax=0;resizeLast=0;collapsible=1;marginBottom=0;whiteSpace=wrap;html=1;" parent="1" vertex="1">
          <mxGeometry x="470" y="150" width="160" height="60" as="geometry" />
        </mxCell>
        <mxCell id="uZX2ix62dhJPmN28t-Xk-11" value="" style="line;strokeWidth=1;fillColor=none;align=left;verticalAlign=middle;spacingTop=-1;spacingLeft=3;spacingRight=3;rotatable=0;labelPosition=right;points=[];portConstraint=eastwest;strokeColor=inherit;" parent="uZX2ix62dhJPmN28t-Xk-9" vertex="1">
          <mxGeometry y="26" width="160" height="8" as="geometry" />
        </mxCell>
        <mxCell id="uZX2ix62dhJPmN28t-Xk-12" value="- courses: list" style="text;strokeColor=none;fillColor=none;align=left;verticalAlign=top;spacingLeft=4;spacingRight=4;overflow=hidden;rotatable=0;points=[[0,0.5],[1,0.5]];portConstraint=eastwest;whiteSpace=wrap;html=1;" parent="uZX2ix62dhJPmN28t-Xk-9" vertex="1">
          <mxGeometry y="34" width="160" height="26" as="geometry" />
        </mxCell>
        <mxCell id="uZX2ix62dhJPmN28t-Xk-17" value="Student" style="swimlane;fontStyle=1;align=center;verticalAlign=top;childLayout=stackLayout;horizontal=1;startSize=26;horizontalStack=0;resizeParent=1;resizeParentMax=0;resizeLast=0;collapsible=1;marginBottom=0;whiteSpace=wrap;html=1;" parent="1" vertex="1">
          <mxGeometry x="650" y="150" width="160" height="60" as="geometry" />
        </mxCell>
        <mxCell id="uZX2ix62dhJPmN28t-Xk-19" value="" style="line;strokeWidth=1;fillColor=none;align=left;verticalAlign=middle;spacingTop=-1;spacingLeft=3;spacingRight=3;rotatable=0;labelPosition=right;points=[];portConstraint=eastwest;strokeColor=inherit;" parent="uZX2ix62dhJPmN28t-Xk-17" vertex="1">
          <mxGeometry y="26" width="160" height="8" as="geometry" />
        </mxCell>
        <mxCell id="uZX2ix62dhJPmN28t-Xk-20" value="- courses: list" style="text;strokeColor=none;fillColor=none;align=left;verticalAlign=top;spacingLeft=4;spacingRight=4;overflow=hidden;rotatable=0;points=[[0,0.5],[1,0.5]];portConstraint=eastwest;whiteSpace=wrap;html=1;" parent="uZX2ix62dhJPmN28t-Xk-17" vertex="1">
          <mxGeometry y="34" width="160" height="26" as="geometry" />
        </mxCell>
        <mxCell id="uZX2ix62dhJPmN28t-Xk-21" value="Course" style="swimlane;fontStyle=1;align=center;verticalAlign=top;childLayout=stackLayout;horizontal=1;startSize=26;horizontalStack=0;resizeParent=1;resizeParentMax=0;resizeLast=0;collapsible=1;marginBottom=0;whiteSpace=wrap;html=1;" parent="1" vertex="1">
          <mxGeometry x="140" y="400" width="310" height="220" as="geometry" />
        </mxCell>
        <mxCell id="uZX2ix62dhJPmN28t-Xk-22" value="- course_code: str&amp;nbsp;&lt;div&gt;- course_name: str&lt;div&gt;- doctor: Doctor&amp;nbsp;&lt;div&gt;- assignments: list &lt;/div&gt;&lt;/div&gt;&lt;/div&gt;" style="text;strokeColor=none;fillColor=none;align=left;verticalAlign=top;spacingLeft=4;spacingRight=4;overflow=hidden;rotatable=0;points=[[0,0.5],[1,0.5]];portConstraint=eastwest;whiteSpace=wrap;html=1;" parent="uZX2ix62dhJPmN28t-Xk-21" vertex="1">
          <mxGeometry y="26" width="310" height="84" as="geometry" />
        </mxCell>
        <mxCell id="uZX2ix62dhJPmN28t-Xk-23" value="" style="line;strokeWidth=1;fillColor=none;align=left;verticalAlign=middle;spacingTop=-1;spacingLeft=3;spacingRight=3;rotatable=0;labelPosition=right;points=[];portConstraint=eastwest;strokeColor=inherit;" parent="uZX2ix62dhJPmN28t-Xk-21" vertex="1">
          <mxGeometry y="110" width="310" height="8" as="geometry" />
        </mxCell>
        <mxCell id="uZX2ix62dhJPmN28t-Xk-24" value="+create_assignment(assignment_name: str, correct_answer: str, user: User) : Assignment&amp;nbsp;&lt;div&gt;+ list_assignments()&amp;nbsp;&lt;/div&gt;&lt;div&gt;+ view_assignment(assignment_name: str) : Assignment   &lt;/div&gt;" style="text;strokeColor=none;fillColor=none;align=left;verticalAlign=top;spacingLeft=4;spacingRight=4;overflow=hidden;rotatable=0;points=[[0,0.5],[1,0.5]];portConstraint=eastwest;whiteSpace=wrap;html=1;" parent="uZX2ix62dhJPmN28t-Xk-21" vertex="1">
          <mxGeometry y="118" width="310" height="102" as="geometry" />
        </mxCell>
        <mxCell id="uZX2ix62dhJPmN28t-Xk-25" value="Assignment" style="swimlane;fontStyle=1;align=center;verticalAlign=top;childLayout=stackLayout;horizontal=1;startSize=26;horizontalStack=0;resizeParent=1;resizeParentMax=0;resizeLast=0;collapsible=1;marginBottom=0;whiteSpace=wrap;html=1;" parent="1" vertex="1">
          <mxGeometry x="528" y="400" width="310" height="250" as="geometry" />
        </mxCell>
        <mxCell id="uZX2ix62dhJPmN28t-Xk-26" value="- course: Course&amp;nbsp;&lt;div&gt;-&amp;nbsp;assignment_name: str&amp;nbsp;&lt;/div&gt;&lt;div&gt;&lt;span style=&quot;background-color: initial;&quot;&gt;- correct_answer: str&amp;nbsp;&lt;/span&gt;&lt;br&gt;&lt;/div&gt;&lt;div&gt;- grades: dict&amp;nbsp;&lt;br&gt;- solutions: dict                                                                   &lt;/div&gt;" style="text;strokeColor=none;fillColor=none;align=left;verticalAlign=top;spacingLeft=4;spacingRight=4;overflow=hidden;rotatable=0;points=[[0,0.5],[1,0.5]];portConstraint=eastwest;whiteSpace=wrap;html=1;" parent="uZX2ix62dhJPmN28t-Xk-25" vertex="1">
          <mxGeometry y="26" width="310" height="104" as="geometry" />
        </mxCell>
        <mxCell id="uZX2ix62dhJPmN28t-Xk-27" value="" style="line;strokeWidth=1;fillColor=none;align=left;verticalAlign=middle;spacingTop=-1;spacingLeft=3;spacingRight=3;rotatable=0;labelPosition=right;points=[];portConstraint=eastwest;strokeColor=inherit;" parent="uZX2ix62dhJPmN28t-Xk-25" vertex="1">
          <mxGeometry y="130" width="310" height="8" as="geometry" />
        </mxCell>
        <mxCell id="uZX2ix62dhJPmN28t-Xk-28" value="+ add_grade(student: Student, grade: str, user: User)&amp;nbsp;&lt;div&gt;+ submit_solution(student: Student, solution: str)&amp;nbsp;&lt;div&gt;+ check_solution_correctness(student: Student)&amp;nbsp;&lt;div&gt;+ view_grades(current_user: User)&amp;nbsp;&lt;div&gt;+ view_solution(student: Student, user: User)&amp;nbsp;&lt;div&gt;+ show_info() &lt;/div&gt;&lt;/div&gt;&lt;/div&gt;&lt;/div&gt;&lt;/div&gt;" style="text;strokeColor=none;fillColor=none;align=left;verticalAlign=top;spacingLeft=4;spacingRight=4;overflow=hidden;rotatable=0;points=[[0,0.5],[1,0.5]];portConstraint=eastwest;whiteSpace=wrap;html=1;" parent="uZX2ix62dhJPmN28t-Xk-25" vertex="1">
          <mxGeometry y="138" width="310" height="112" as="geometry" />
        </mxCell>
        <mxCell id="uZX2ix62dhJPmN28t-Xk-29" value="" style="endArrow=classic;html=1;rounded=0;entryX=0.613;entryY=0.012;entryDx=0;entryDy=0;entryPerimeter=0;" parent="1" source="uZX2ix62dhJPmN28t-Xk-17" target="uZX2ix62dhJPmN28t-Xk-25" edge="1">
          <mxGeometry width="50" height="50" relative="1" as="geometry">
            <mxPoint x="400" y="390" as="sourcePoint" />
            <mxPoint x="450" y="340" as="targetPoint" />
            <Array as="points">
              <mxPoint x="720" y="280" />
            </Array>
          </mxGeometry>
        </mxCell>
        <mxCell id="uZX2ix62dhJPmN28t-Xk-30" value="interact" style="edgeLabel;html=1;align=center;verticalAlign=middle;resizable=0;points=[];" parent="uZX2ix62dhJPmN28t-Xk-29" vertex="1" connectable="0">
          <mxGeometry x="0.0604" relative="1" as="geometry">
            <mxPoint as="offset" />
          </mxGeometry>
        </mxCell>
        <mxCell id="uZX2ix62dhJPmN28t-Xk-34" value="" style="endArrow=classic;html=1;rounded=0;entryX=0.215;entryY=0.004;entryDx=0;entryDy=0;entryPerimeter=0;" parent="1" source="uZX2ix62dhJPmN28t-Xk-8" target="uZX2ix62dhJPmN28t-Xk-25" edge="1">
          <mxGeometry width="50" height="50" relative="1" as="geometry">
            <mxPoint x="400" y="390" as="sourcePoint" />
            <mxPoint x="450" y="340" as="targetPoint" />
          </mxGeometry>
        </mxCell>
        <mxCell id="uZX2ix62dhJPmN28t-Xk-35" value="&lt;span style=&quot;font-size: 12px; text-align: left; text-wrap: wrap; background-color: rgb(251, 251, 251);&quot;&gt;perform actions on&lt;/span&gt;" style="edgeLabel;html=1;align=center;verticalAlign=middle;resizable=0;points=[];" parent="uZX2ix62dhJPmN28t-Xk-34" vertex="1" connectable="0">
          <mxGeometry x="0.1837" y="-2" relative="1" as="geometry">
            <mxPoint x="-1" as="offset" />
          </mxGeometry>
        </mxCell>
        <mxCell id="uZX2ix62dhJPmN28t-Xk-39" value="" style="endArrow=classic;html=1;rounded=0;entryX=0.475;entryY=0;entryDx=0;entryDy=0;entryPerimeter=0;" parent="1" source="uZX2ix62dhJPmN28t-Xk-9" target="uZX2ix62dhJPmN28t-Xk-25" edge="1">
          <mxGeometry width="50" height="50" relative="1" as="geometry">
            <mxPoint x="500" y="240" as="sourcePoint" />
            <mxPoint x="647" y="461" as="targetPoint" />
          </mxGeometry>
        </mxCell>
        <mxCell id="uZX2ix62dhJPmN28t-Xk-40" value="&lt;span style=&quot;font-size: 12px; text-align: left; text-wrap: wrap; background-color: rgb(251, 251, 251);&quot;&gt;perform actions on&lt;/span&gt;" style="edgeLabel;html=1;align=center;verticalAlign=middle;resizable=0;points=[];" parent="uZX2ix62dhJPmN28t-Xk-39" vertex="1" connectable="0">
          <mxGeometry x="0.1837" y="-2" relative="1" as="geometry">
            <mxPoint x="-1" as="offset" />
          </mxGeometry>
        </mxCell>
        <mxCell id="uZX2ix62dhJPmN28t-Xk-48" value="" style="edgeStyle=elbowEdgeStyle;html=1;elbow=vertical;verticalAlign=bottom;endArrow=none;rounded=0;labelBackgroundColor=default;fontFamily=Helvetica;fontSize=11;fontColor=default;startSize=14;shape=connector;" parent="1" target="uZX2ix62dhJPmN28t-Xk-5" edge="1">
          <mxGeometry x="1" relative="1" as="geometry">
            <mxPoint x="460" y="112.99999999999997" as="targetPoint" />
            <Array as="points">
              <mxPoint x="520" y="100" />
              <mxPoint x="580" y="88" />
              <mxPoint x="490" y="88" />
            </Array>
            <mxPoint x="528" y="88" as="sourcePoint" />
          </mxGeometry>
        </mxCell>
        <mxCell id="uZX2ix62dhJPmN28t-Xk-49" value="" style="verticalAlign=bottom;html=1;ellipse;fillColor=strokeColor;fontFamily=Helvetica;fontSize=11;fontColor=default;" parent="1" vertex="1">
          <mxGeometry x="528" y="90" width="4" height="4" as="geometry" />
        </mxCell>
        <mxCell id="uZX2ix62dhJPmN28t-Xk-50" value="" style="edgeStyle=elbowEdgeStyle;html=1;endSize=12;endArrow=block;endFill=0;elbow=horizontal;rounded=0;labelBackgroundColor=default;fontFamily=Helvetica;fontSize=11;fontColor=default;shape=connector;" parent="1" source="uZX2ix62dhJPmN28t-Xk-49" target="uZX2ix62dhJPmN28t-Xk-1" edge="1">
          <mxGeometry x="1" relative="1" as="geometry">
            <mxPoint x="530" y="67" as="targetPoint" />
            <Array as="points" />
          </mxGeometry>
        </mxCell>
        <mxCell id="uZX2ix62dhJPmN28t-Xk-51" value="" style="edgeStyle=elbowEdgeStyle;html=1;elbow=vertical;verticalAlign=bottom;endArrow=none;rounded=0;labelBackgroundColor=default;fontFamily=Helvetica;fontSize=11;fontColor=default;startSize=14;shape=connector;" parent="1" target="uZX2ix62dhJPmN28t-Xk-17" edge="1">
          <mxGeometry x="1" relative="1" as="geometry">
            <mxPoint x="668" y="184" as="targetPoint" />
            <Array as="points">
              <mxPoint x="560" y="100" />
              <mxPoint x="668" y="94" />
              <mxPoint x="568" y="96" />
            </Array>
            <mxPoint x="528" y="94" as="sourcePoint" />
          </mxGeometry>
        </mxCell>
        <mxCell id="uZX2ix62dhJPmN28t-Xk-52" value="" style="edgeStyle=elbowEdgeStyle;html=1;elbow=vertical;verticalAlign=bottom;endArrow=none;rounded=0;labelBackgroundColor=default;fontFamily=Helvetica;fontSize=11;fontColor=default;startSize=14;shape=connector;entryX=0.394;entryY=-0.033;entryDx=0;entryDy=0;entryPerimeter=0;" parent="1" edge="1">
          <mxGeometry x="1" relative="1" as="geometry">
            <mxPoint x="532" y="149.99999999999997" as="targetPoint" />
            <Array as="points" />
            <mxPoint x="528.96" y="95.98" as="sourcePoint" />
          </mxGeometry>
        </mxCell>
        <mxCell id="uZX2ix62dhJPmN28t-Xk-53" value="" style="endArrow=diamondThin;endFill=1;endSize=24;html=1;rounded=0;" parent="1" source="uZX2ix62dhJPmN28t-Xk-25" target="uZX2ix62dhJPmN28t-Xk-21" edge="1">
          <mxGeometry width="160" relative="1" as="geometry">
            <mxPoint x="170" y="640" as="sourcePoint" />
            <mxPoint x="330" y="640" as="targetPoint" />
          </mxGeometry>
        </mxCell>
        <mxCell id="uZX2ix62dhJPmN28t-Xk-55" value="" style="endArrow=diamondThin;endFill=1;endSize=24;html=1;rounded=0;" parent="1" source="uZX2ix62dhJPmN28t-Xk-21" target="uZX2ix62dhJPmN28t-Xk-9" edge="1">
          <mxGeometry width="160" relative="1" as="geometry">
            <mxPoint x="450" y="336" as="sourcePoint" />
            <mxPoint x="494" y="230" as="targetPoint" />
          </mxGeometry>
        </mxCell>
        <mxCell id="uZX2ix62dhJPmN28t-Xk-56" value="" style="endArrow=diamondThin;endFill=1;endSize=24;html=1;rounded=0;" parent="1" source="uZX2ix62dhJPmN28t-Xk-21" target="uZX2ix62dhJPmN28t-Xk-5" edge="1">
          <mxGeometry width="160" relative="1" as="geometry">
            <mxPoint x="210" y="480" as="sourcePoint" />
            <mxPoint x="367" y="230" as="targetPoint" />
          </mxGeometry>
        </mxCell>
        <mxCell id="uZX2ix62dhJPmN28t-Xk-57" value="System" style="swimlane;fontStyle=1;align=center;verticalAlign=top;childLayout=stackLayout;horizontal=1;startSize=26;horizontalStack=0;resizeParent=1;resizeParentMax=0;resizeLast=0;collapsible=1;marginBottom=0;whiteSpace=wrap;html=1;" parent="1" vertex="1">
          <mxGeometry x="-140" width="360" height="300" as="geometry" />
        </mxCell>
        <mxCell id="uZX2ix62dhJPmN28t-Xk-59" value="" style="line;strokeWidth=1;fillColor=none;align=left;verticalAlign=middle;spacingTop=-1;spacingLeft=3;spacingRight=3;rotatable=0;labelPosition=right;points=[];portConstraint=eastwest;strokeColor=inherit;" parent="uZX2ix62dhJPmN28t-Xk-57" vertex="1">
          <mxGeometry y="26" width="360" height="8" as="geometry" />
        </mxCell>
        <mxCell id="uZX2ix62dhJPmN28t-Xk-60" value="&lt;div style=&quot;color: rgb(204, 204, 204); background-color: rgb(31, 31, 31); font-family: Consolas, &amp;quot;Courier New&amp;quot;, monospace; font-size: 14px; line-height: 19px; white-space: pre;&quot;&gt;&lt;div style=&quot;line-height: 19px;&quot;&gt;&lt;div style=&quot;color: rgb(0, 0, 0); background-color: rgb(255, 255, 255); line-height: 19px;&quot;&gt;+ validate_email(email)&lt;/div&gt;&lt;div style=&quot;color: rgb(0, 0, 0); background-color: rgb(255, 255, 255); line-height: 19px;&quot;&gt;+ sign_up(user_type, user_id, name, email)&lt;/div&gt;&lt;div style=&quot;color: rgb(0, 0, 0); background-color: rgb(255, 255, 255); line-height: 19px;&quot;&gt;+ sign_in(user_type, user_id)&lt;/div&gt;&lt;div style=&quot;color: rgb(0, 0, 0); background-color: rgb(255, 255, 255); line-height: 19px;&quot;&gt;+ log_out&lt;/div&gt;&lt;div style=&quot;color: rgb(0, 0, 0); background-color: rgb(255, 255, 255); line-height: 19px;&quot;&gt;+ list_available_courses&lt;/div&gt;&lt;div style=&quot;color: rgb(0, 0, 0); background-color: rgb(255, 255, 255); line-height: 19px;&quot;&gt;+ enroll_course&lt;/div&gt;&lt;div style=&quot;color: rgb(0, 0, 0); background-color: rgb(255, 255, 255); line-height: 19px;&quot;&gt;+ main_menu&lt;/div&gt;&lt;div style=&quot;color: rgb(0, 0, 0); background-color: rgb(255, 255, 255); line-height: 19px;&quot;&gt;+ doctor_menu&lt;/div&gt;&lt;div style=&quot;color: rgb(0, 0, 0); background-color: rgb(255, 255, 255); line-height: 19px;&quot;&gt;+ ta_menu&lt;/div&gt;&lt;div style=&quot;color: rgb(0, 0, 0); background-color: rgb(255, 255, 255); line-height: 19px;&quot;&gt;+ student_menu&lt;/div&gt;&lt;div style=&quot;color: rgb(0, 0, 0); background-color: rgb(255, 255, 255); line-height: 19px;&quot;&gt;+ course_menu(course)&lt;/div&gt;&lt;div style=&quot;color: rgb(0, 0, 0); background-color: rgb(255, 255, 255); line-height: 19px;&quot;&gt;+ assignment_menu(assignment)&lt;/div&gt;&lt;div style=&quot;color: rgb(0, 0, 0); background-color: rgb(255, 255, 255); line-height: 19px;&quot;&gt;+ find_student_by_name(student_name)&lt;/div&gt;&lt;/div&gt;&lt;/div&gt;" style="text;strokeColor=none;fillColor=none;align=left;verticalAlign=top;spacingLeft=4;spacingRight=4;overflow=hidden;rotatable=0;points=[[0,0.5],[1,0.5]];portConstraint=eastwest;whiteSpace=wrap;html=1;" parent="uZX2ix62dhJPmN28t-Xk-57" vertex="1">
          <mxGeometry y="34" width="360" height="266" as="geometry" />
        </mxCell>
        <mxCell id="uZX2ix62dhJPmN28t-Xk-61" value="" style="endArrow=classic;html=1;rounded=0;" parent="1" source="uZX2ix62dhJPmN28t-Xk-57" target="uZX2ix62dhJPmN28t-Xk-1" edge="1">
          <mxGeometry width="50" height="50" relative="1" as="geometry">
            <mxPoint x="530" y="290" as="sourcePoint" />
            <mxPoint x="580" y="240" as="targetPoint" />
            <Array as="points">
              <mxPoint x="310" y="70" />
            </Array>
          </mxGeometry>
        </mxCell>
        <mxCell id="uZX2ix62dhJPmN28t-Xk-62" value="" style="endArrow=classic;html=1;rounded=0;" parent="1" source="uZX2ix62dhJPmN28t-Xk-57" target="uZX2ix62dhJPmN28t-Xk-25" edge="1">
          <mxGeometry width="50" height="50" relative="1" as="geometry">
            <mxPoint x="190" y="340" as="sourcePoint" />
            <mxPoint x="240" y="290" as="targetPoint" />
          </mxGeometry>
        </mxCell>
        <mxCell id="uZX2ix62dhJPmN28t-Xk-63" value="" style="endArrow=classic;html=1;rounded=0;" parent="1" source="uZX2ix62dhJPmN28t-Xk-57" target="uZX2ix62dhJPmN28t-Xk-21" edge="1">
          <mxGeometry width="50" height="50" relative="1" as="geometry">
            <mxPoint x="120" y="360" as="sourcePoint" />
            <mxPoint x="170" y="310" as="targetPoint" />
          </mxGeometry>
        </mxCell>
      </root>
    </mxGraphModel>
  </diagram>
</mxfile>
